<svg width="16" height="16" viewBox="0 0 16 16" fill="none" xmlns="http://www.w3.org/2000/svg">
<path d="M15.7552 6.81756L8.4219 0.817558C8.30282 0.720187 8.15373 0.666992 7.9999 0.666992C7.84608 0.666992 7.69699 0.720187 7.5779 0.817558L0.24457 6.81756C0.110787 6.93044 0.0267653 7.0914 0.0106468 7.2657C-0.00547164 7.44 0.0476064 7.61364 0.15842 7.74914C0.269234 7.88463 0.428893 7.97111 0.602922 7.9899C0.776952 8.00869 0.951389 7.95828 1.08857 7.84956L1.9999 7.10422V14.6669C1.9999 14.8437 2.07014 15.0133 2.19517 15.1383C2.32019 15.2633 2.48976 15.3336 2.66657 15.3336H6.66657V11.3336H9.33324V15.3336H13.3332C13.51 15.3336 13.6796 15.2633 13.8046 15.1383C13.9297 15.0133 13.9999 14.8437 13.9999 14.6669V7.10422L14.9112 7.84956C14.9788 7.90657 15.057 7.94957 15.1414 7.97606C15.2257 8.00255 15.3145 8.012 15.4025 8.00386C15.4906 7.99572 15.5761 7.97015 15.6542 7.92864C15.7322 7.88713 15.8012 7.83051 15.8572 7.76208C15.9132 7.69364 15.955 7.61476 15.9802 7.53002C16.0054 7.44527 16.0135 7.35637 16.004 7.26847C15.9945 7.18057 15.9676 7.09544 15.9249 7.01803C15.8822 6.94062 15.8245 6.87247 15.7552 6.81756Z" fill="#343434"/>
</svg>
