<svg width="32" height="28" viewBox="0 0 32 28" fill="none" xmlns="http://www.w3.org/2000/svg">
<path d="M24.9639 20.417C24.9639 21.3883 25.7514 22.1758 26.7226 22.1758C27.6939 22.1758 28.4814 21.3883 28.4814 20.417C28.4814 19.4457 27.6939 18.6582 26.7226 18.6582C25.7514 18.6582 24.9639 19.4457 24.9639 20.417Z" fill="#FFFFFF"/>
<path d="M31.133 16.9017C30.6065 16.8731 30.1703 17.3085 30.1703 17.8494V18.4319C30.2035 20.4695 29.7797 21.9286 28.9424 22.6503C28.8331 22.744 28.7238 22.8319 28.6145 22.9148C28.1099 23.2673 27.5036 23.4746 26.8507 23.4746C26.0894 23.4746 25.3909 23.1942 24.8435 22.7292C23.9302 23.1616 23.2061 23.9603 23.2061 25.297V26.9752C23.2061 27.2388 23.4123 27.453 23.666 27.453H30.0372C30.2909 27.453 30.4972 27.2388 30.4972 26.9752V25.297C30.4972 25.2131 30.4943 25.1321 30.4886 25.0521C30.4411 24.3749 30.5837 23.7026 30.9467 23.137C31.6775 22.0007 32.031 20.4172 31.9978 18.4161V17.9028C31.9978 17.3894 31.6271 16.9284 31.133 16.9017Z" fill="#FFFFFF"/>
<path d="M11.9307 17.8306C11.9307 19.5761 13.3459 20.9913 15.0914 20.9913C16.8369 20.9913 18.2521 19.5761 18.2521 17.8306C18.2521 16.0851 16.8369 14.6699 15.0914 14.6699C13.3459 14.6699 11.9307 16.0851 11.9307 17.8306Z" fill="#FFFFFF"/>
<path d="M21.2406 13.3065C20.4845 13.267 19.8581 13.8688 19.8581 14.6167V15.4219C19.9059 18.2386 19.2972 20.2557 18.0949 21.2533C17.938 21.383 17.781 21.5044 17.6241 21.6191C16.8994 22.1063 16.0287 22.3929 15.0911 22.3929C13.998 22.3929 12.9949 22.0053 12.2088 21.3625C10.8973 21.9603 9.85742 23.0643 9.85742 24.9122V27.2322C9.85742 27.5966 10.1536 27.8927 10.5179 27.8927H19.6671C20.0314 27.8927 20.3276 27.5966 20.3276 27.2322V24.9122C20.3276 24.7962 20.3235 24.6842 20.3153 24.5737C20.2471 23.6375 20.4518 22.7081 20.9731 21.9261C22.0226 20.3553 22.5303 18.1663 22.4825 15.4V14.6904C22.4825 13.9807 21.9502 13.3434 21.2406 13.3065Z" fill="#FFFFFF"/>
<path d="M2.10059 20.417C2.10059 21.3883 2.88809 22.1758 3.85936 22.1758C4.83064 22.1758 5.61814 21.3883 5.61814 20.417C5.61814 19.4457 4.83064 18.6582 3.85936 18.6582C2.88809 18.6582 2.10059 19.4457 2.10059 20.417Z" fill="#FFFFFF"/>
<path d="M8.26871 16.9017C7.74221 16.8731 7.306 17.3085 7.306 17.8494V18.4319C7.33926 20.4695 6.9154 21.9286 6.07814 22.6503C5.96885 22.744 5.85956 22.8319 5.75027 22.9148C5.24563 23.2673 4.6393 23.4746 3.98641 23.4746C3.22517 23.4746 2.52666 23.1942 1.97926 22.7292C1.06597 23.1616 0.341797 23.9603 0.341797 25.297V26.9752C0.341797 27.2388 0.548024 27.453 0.801769 27.453H7.17295C7.42669 27.453 7.63292 27.2388 7.63292 26.9752V25.297C7.63292 25.2131 7.63007 25.1321 7.62436 25.0521C7.57685 24.3749 7.7194 23.7026 8.08244 23.137C8.81326 22.0007 9.16679 20.4172 9.13353 18.4161V17.9028C9.13353 17.3894 8.76289 16.9284 8.26871 16.9017Z" fill="#FFFFFF"/>
<path d="M1.58269 15.0474H2.46116L3.54384 16.7285C3.69101 16.9563 4.02768 16.9563 4.17486 16.7285L5.25754 15.0474H6.13601C6.8213 15.0474 7.3769 14.4992 7.3769 13.823V9.32994C7.3769 8.65371 6.8213 8.10547 6.13601 8.10547H1.58269C0.897393 8.10547 0.341797 8.65371 0.341797 9.32994V13.823C0.341797 14.4992 0.897393 15.0474 1.58269 15.0474ZM1.96259 11.1771C2.1898 10.9529 2.55774 10.9529 2.78495 11.1771L3.35986 11.7444L4.93283 10.1922C5.16003 9.96804 5.52798 9.96804 5.75518 10.1922C5.98239 10.4164 5.98239 10.7795 5.75518 11.0037L3.77104 12.9616C3.6579 13.0732 3.50888 13.1295 3.35986 13.1295C3.21085 13.1295 3.06183 13.0732 2.94869 12.9616L1.96259 11.9885C1.73539 11.7643 1.73539 11.4013 1.96259 11.1771Z" fill="#FFFFFF"/>
<path d="M11.715 10.455H13.0184L14.6246 12.9825C14.843 13.325 15.3425 13.325 15.5608 12.9825L17.1671 10.455H18.4704C19.4871 10.455 20.3114 9.6307 20.3114 8.61398V1.85859C20.3114 0.841872 19.4871 0.0175781 18.4704 0.0175781H11.715C10.6983 0.0175781 9.87402 0.841872 9.87402 1.85859V8.61398C9.87402 9.6307 10.6983 10.455 11.715 10.455ZM12.2787 4.63581C12.6158 4.29872 13.1616 4.29872 13.4987 4.63581L14.3517 5.48876L16.6854 3.15508C17.0225 2.81799 17.5683 2.81799 17.9054 3.15508C18.2425 3.49217 18.2425 4.03806 17.9054 4.37514L14.9617 7.31886C14.7939 7.48672 14.5728 7.57133 14.3517 7.57133C14.1306 7.57133 13.9095 7.48672 13.7417 7.31886L12.2787 5.85587C11.9416 5.51878 11.9416 4.97289 12.2787 4.63581Z" fill="#FFFFFF"/>
<path d="M24.4469 15.0474H25.3254L26.4081 16.7285C26.5553 16.9563 26.8919 16.9563 27.0391 16.7285L28.1218 15.0474H29.0003C29.6856 15.0474 30.2412 14.4992 30.2412 13.823V9.32994C30.2412 8.65371 29.6856 8.10547 29.0003 8.10547H24.4469C23.7617 8.10547 23.2061 8.65371 23.2061 9.32994V13.823C23.2061 14.4992 23.7617 15.0474 24.4469 15.0474ZM24.8269 11.1771C25.0541 10.9529 25.422 10.9529 25.6492 11.1771L26.2241 11.7444L27.7971 10.1922C28.0243 9.96804 28.3922 9.96804 28.6194 10.1922C28.8466 10.4164 28.8466 10.7795 28.6194 11.0037L26.6353 12.9616C26.5222 13.0732 26.3731 13.1295 26.2241 13.1295C26.0751 13.1295 25.9261 13.0732 25.8129 12.9616L24.8269 11.9885C24.5996 11.7643 24.5996 11.4013 24.8269 11.1771Z" fill="#FFFFFF"/>
</svg>
