<svg width="19" height="30" viewBox="0 0 19 30" fill="none" xmlns="http://www.w3.org/2000/svg">
<path d="M7.88448 4.40998C7.34774 4.40998 6.91113 3.96314 6.91113 3.41383V0.996147C6.91113 0.446836 7.34774 0 7.88448 0C8.42121 0 8.85782 0.446836 8.85782 0.996147V3.41502C8.85782 3.96433 8.42121 4.41117 7.88448 4.41117V4.40998Z" fill="white"/>
<path d="M11.3495 5.12829C11.218 5.12829 11.0899 5.10208 10.97 5.04846C10.4763 4.83398 10.2446 4.24892 10.4542 3.7437L11.3775 1.51666C11.53 1.14847 11.8816 0.910156 12.274 0.910156C12.4044 0.910156 12.5324 0.936371 12.6535 0.989991C13.1472 1.20328 13.3789 1.78953 13.1705 2.29475L12.2472 4.52179C12.0947 4.88998 11.7431 5.12829 11.3507 5.12829H11.3495Z" fill="white"/>
<path d="M4.40482 5.12829C4.01478 5.12829 3.66317 4.88998 3.50948 4.52179L2.58504 2.29475C2.37547 1.78953 2.60716 1.20447 3.10198 0.988799C3.22423 0.936371 3.35114 0.910156 3.4827 0.910156C3.87274 0.910156 4.22435 1.14847 4.37804 1.51666L5.30248 3.7437C5.51206 4.24892 5.28036 4.83517 4.7867 5.04965C4.66445 5.10208 4.53755 5.12829 4.40715 5.12829H4.40482Z" fill="white"/>
<path d="M7.87623 15.4761C10.5029 15.4761 12.6323 13.2967 12.6323 10.6085C12.6323 7.92037 10.5029 5.74219 7.87623 5.74219C5.2496 5.74219 3.12012 7.92156 3.12012 10.6085C3.12012 13.2955 5.2496 15.4761 7.87623 15.4761Z" fill="white"/>
<path d="M17.2233 3.64491C16.0427 3.52576 15.0484 4.47186 15.0484 5.65508V6.8955C15.1206 11.234 14.2031 14.3392 12.3962 15.8751C12.161 16.0753 11.9235 16.2624 11.6871 16.4375C10.5962 17.187 9.28635 17.6279 7.87524 17.6279C6.23126 17.6279 4.72118 17.0321 3.53827 16.0407C1.56597 16.963 0 18.661 0 21.5076V28.1911C0 29.1908 0.791715 29.9999 1.76739 29.9999H13.9843C14.9611 29.9999 15.7516 29.1897 15.7516 28.1911V21.5076C15.7516 21.3087 15.7435 21.1168 15.7295 20.9274C15.6201 19.4999 15.9892 18.0521 16.7587 16.857C18.3142 14.4405 19.0664 11.0898 18.9953 6.86094V5.76828C18.9953 4.71136 18.2514 3.74739 17.2233 3.64372V3.64491ZM11.0875 23.7502L8.24082 26.6635C8.03591 26.8733 7.70409 26.8733 7.49917 26.6635L4.71187 23.8121C4.0424 23.127 3.87125 22.0367 4.401 21.2324C5.11471 20.1481 6.56425 20.0444 7.42 20.919L7.86942 21.3801L8.25945 20.981C8.92892 20.2958 9.99424 20.1207 10.7801 20.6616C11.8396 21.3909 11.9421 22.8756 11.0863 23.7514L11.0875 23.7502Z" fill="white"/>
</svg>
