<svg width="28" height="28" viewBox="0 0 28 28" fill="none" xmlns="http://www.w3.org/2000/svg">
<mask id="mask0_1192_4923" style="mask-type:alpha" maskUnits="userSpaceOnUse" x="0" y="0" width="28" height="28">
<rect width="28" height="28" fill="#D9D9D9"/>
</mask>
<g mask="url(#mask0_1192_4923)">
<path d="M9.33268 14.0007H18.666V11.6673H9.33268V14.0007ZM9.33268 9.33398H18.666V7.00065H9.33268V9.33398ZM23.2743 23.8882L18.5494 17.734C18.2188 17.2868 17.8105 16.9416 17.3244 16.6986C16.8382 16.4555 16.3132 16.334 15.7493 16.334H4.66602V4.66732C4.66602 4.02565 4.89449 3.47635 5.35143 3.0194C5.80838 2.56246 6.35768 2.33398 6.99935 2.33398H20.9993C21.641 2.33398 22.1903 2.56246 22.6473 3.0194C23.1042 3.47635 23.3327 4.02565 23.3327 4.66732V23.334C23.3327 23.4312 23.3278 23.5236 23.3181 23.6111C23.3084 23.6986 23.2938 23.7909 23.2743 23.8882ZM6.99935 25.6673C6.35768 25.6673 5.80838 25.4388 5.35143 24.9819C4.89449 24.525 4.66602 23.9757 4.66602 23.334V18.6673H15.7493C15.9438 18.6673 16.1237 18.7111 16.2889 18.7986C16.4542 18.8861 16.5952 19.0076 16.7118 19.1632L21.6119 25.5798C21.5146 25.6187 21.4125 25.643 21.3056 25.6527C21.1987 25.6625 21.0966 25.6673 20.9993 25.6673H6.99935Z" fill="white"/>
</g>
</svg>
