<svg width="26" height="34" viewBox="0 0 26 34" fill="none" xmlns="http://www.w3.org/2000/svg">
<path d="M9.31305 9.39451C9.67992 9.56837 9.99548 9.71829 10.2238 9.82537C10.252 9.83923 10.2815 9.84931 10.3046 9.86317C10.4958 9.95261 10.7241 9.906 10.8729 9.75482C11.0537 9.56333 11.1307 9.32396 11.1307 9.09467C11.1307 9.01908 11.1217 8.94475 11.1025 8.86916C11.0409 8.60712 10.869 8.36775 10.5971 8.23673C10.5394 8.20902 10.4829 8.17626 10.4252 8.14729C9.23224 7.52871 7.79171 6.65691 8.097 6.00559C8.34971 5.48528 9.70429 5.7385 12.3327 7.03612C13.0099 6.78794 13.7398 6.65188 14.5031 6.65188C14.7943 6.65188 15.0854 6.67077 15.3664 6.71235C13.931 5.29756 11.5412 3.00721 10.6959 2.63682C9.57987 2.14549 7.04258 2.59524 6.20238 2.45414C5.56741 2.35084 4.65666 1.40471 3.96012 0.865505C3.76002 0.715586 3.47396 0.729445 3.28796 0.898261L0.922566 3.07524C0.694236 3.28563 0.708346 3.64216 0.941807 3.83869C1.75764 4.50892 3.02628 5.60496 4.03709 6.52337C4.78109 7.18856 7.61469 8.58444 9.31305 9.39451Z" fill="white"/>
<path d="M11.9569 8.28427C12.0711 8.53245 12.1339 8.80961 12.1339 9.09433C12.1339 9.59071 11.9479 10.0644 11.6003 10.4335C11.3143 10.7245 10.9179 10.8883 10.5074 10.8883C10.297 10.8883 10.0879 10.8455 9.87757 10.7523C9.82498 10.7283 9.77752 10.7056 9.72493 10.6817C9.43374 11.3242 9.27211 12.031 9.27211 12.7755C9.27211 14.4057 10.0469 15.8558 11.2514 16.7969H8.76543C8.43576 16.7969 8.16895 17.0589 8.16895 17.3827C8.16895 17.7065 8.43576 17.9685 8.76543 17.9685H20.2448C20.5745 17.9685 20.8413 17.7065 20.8413 17.3827C20.8413 17.0589 20.5745 16.7969 20.2448 16.7969H17.7601C18.9646 15.8558 19.7394 14.4057 19.7394 12.7755C19.7394 9.9359 17.3971 7.63672 14.507 7.63672C13.5822 7.63672 12.7137 7.87105 11.9595 8.28301L11.9569 8.28427ZM15.0176 9.70409V10.2357C15.6538 10.3101 16.1515 10.8027 16.2169 11.4313C16.2221 11.4855 16.2041 11.5397 16.1669 11.58C16.1271 11.6241 16.0707 11.648 16.0104 11.648H15.387C15.2895 11.648 15.2087 11.585 15.1895 11.4956C15.1561 11.3406 15.015 11.2285 14.8534 11.2285H14.3082C14.0183 11.2285 13.7694 11.4338 13.7425 11.6959C13.7271 11.8458 13.7746 11.9894 13.8759 12.1003C13.9773 12.2099 14.1209 12.2729 14.271 12.2729H14.7379C15.1753 12.2729 15.5961 12.4568 15.8911 12.7755C16.1913 13.0993 16.3324 13.5188 16.2888 13.9573C16.2234 14.6136 15.7051 15.1553 15.0176 15.2977V15.852C15.0176 15.9629 14.9252 16.0536 14.8123 16.0536H14.1966C14.0824 16.0536 13.9914 15.9629 13.9914 15.852V15.3204C13.3564 15.2448 12.8574 14.7522 12.792 14.1235C12.7869 14.0694 12.8061 14.0139 12.8433 13.9736C12.8831 13.9308 12.9395 13.9056 12.9985 13.9056H13.6219C13.7181 13.9056 13.8015 13.9711 13.8208 14.0606C13.8541 14.2143 13.9952 14.3264 14.1568 14.3264H14.7033C14.9932 14.3264 15.2408 14.121 15.269 13.859C15.2844 13.7091 15.2356 13.5654 15.1343 13.4546C15.0342 13.345 14.8906 13.282 14.7405 13.282H14.339C13.509 13.282 12.7984 12.676 12.7214 11.9025C12.6419 11.1 13.1961 10.3857 13.9926 10.2458V9.70283C13.9926 9.5907 14.085 9.5 14.1979 9.5H14.8136C14.9278 9.5 15.0188 9.5907 15.0188 9.70283L15.0176 9.70409Z" fill="white"/>
<path d="M25.3225 19.517L23.229 14.2648C23.1431 14.0405 22.9186 13.8906 22.6762 13.8906H20.6161C20.5404 14.2988 20.4249 14.6868 20.2684 15.0623H22.2721L24.1372 19.7324H4.83948L6.69947 15.0623H8.70313C8.54535 14.6881 8.43119 14.2988 8.3555 13.8906H6.2954C6.04783 13.8906 5.82848 14.0405 5.7374 14.2648L3.64395 19.517C3.61958 19.5825 3.60547 19.6581 3.60547 19.7274V29.6687C3.60547 29.9924 3.87228 30.2545 4.20195 30.2545H9.59721C8.4671 29.1206 8.16566 27.4111 8.85834 26.0807C9.50742 24.8398 10.7761 24.0662 12.164 24.0662C13.0222 24.0662 13.8431 24.3572 14.496 24.8864C15.1785 24.3572 16.0225 24.0624 16.8717 24.0624C17.4297 24.0624 17.9595 24.1884 18.4456 24.4328C19.5334 24.9809 20.2633 25.9597 20.4493 27.1175C20.6302 28.2514 20.2441 29.4179 19.4192 30.2331L19.3949 30.257H24.7709C25.1006 30.257 25.3674 29.9949 25.3674 29.6712V19.7299C25.3674 19.6594 25.3533 19.585 25.325 19.5195L25.3225 19.517Z" fill="white"/>
<path d="M17.895 25.4705C16.9355 24.988 15.7541 25.2652 14.9921 26.0135L14.4867 26.5111L13.9159 25.9492C12.7576 24.8129 10.7411 25.0321 9.91629 26.6119C9.425 27.5543 9.7072 28.7146 10.4692 29.4629L14.1648 33.0924C14.3418 33.2663 14.6304 33.2663 14.8074 33.0924L18.5697 29.3986C19.7281 28.261 19.5023 26.2806 17.895 25.4705Z" fill="white"/>
</svg>
