<svg width="73" height="98" viewBox="0 0 73 98" fill="none" xmlns="http://www.w3.org/2000/svg">
<g clip-path="url(#clip0_1619_2720)">
<path d="M25.3796 26.055C26.468 26.5799 27.4042 27.0325 28.0816 27.3558C28.1654 27.3977 28.2529 27.4281 28.3214 27.4699C28.8884 27.74 29.5658 27.5993 30.0073 27.1428C30.5439 26.5647 30.7722 25.842 30.7722 25.1497C30.7722 24.9215 30.7456 24.6971 30.6885 24.4689C30.5058 23.6777 29.9959 22.9551 29.1891 22.5595C29.0178 22.4758 28.8504 22.3769 28.6791 22.2894C25.1399 20.4219 20.8661 17.7898 21.7719 15.8233C22.5216 14.2524 26.5404 15.0169 34.3381 18.9346C36.3475 18.1853 38.5129 17.7745 40.7773 17.7745C41.6412 17.7745 42.5051 17.8316 43.3385 17.9571C39.08 13.6857 31.99 6.7707 29.4821 5.65244C26.1712 4.16903 18.6436 5.52692 16.1509 5.10091C14.2671 4.78902 11.5651 1.9325 9.49865 0.30456C8.90497 -0.14807 8.05631 -0.10623 7.50449 0.403454L0.486867 6.97609C-0.190539 7.61129 -0.148677 8.68772 0.543951 9.28108C2.96435 11.3046 6.72813 14.6137 9.72699 17.3866C11.9343 19.3949 20.3409 23.6093 25.3796 26.055Z" fill="white"/>
<path d="M33.2234 22.7041C33.5621 23.4534 33.7486 24.2902 33.7486 25.1498C33.7486 26.6484 33.1968 28.0786 32.1655 29.193C31.3168 30.0717 30.1409 30.5661 28.9231 30.5661C28.2989 30.5661 27.6786 30.4368 27.0545 30.1553C26.8984 30.0831 26.7576 30.0146 26.6016 29.9423C25.7377 31.8822 25.2582 34.016 25.2582 36.2639C25.2582 41.1858 27.5568 45.5638 31.1303 48.4051H23.755C22.7769 48.4051 21.9854 49.1962 21.9854 50.1737C21.9854 51.1513 22.7769 51.9424 23.755 51.9424H57.8118C58.7898 51.9424 59.5814 51.1513 59.5814 50.1737C59.5814 49.1962 58.7898 48.4051 57.8118 48.4051H50.4402C54.0137 45.5638 56.3123 41.1858 56.3123 36.2639C56.3123 27.6906 49.3632 20.749 40.7891 20.749C38.0452 20.749 35.4688 21.4565 33.2311 22.7003L33.2234 22.7041ZM42.3037 26.9907V28.5959C44.1913 28.8203 45.6679 30.3075 45.862 32.2055C45.8772 32.3691 45.8239 32.5326 45.7136 32.6543C45.5956 32.7874 45.4282 32.8597 45.2493 32.8597H43.3997C43.1105 32.8597 42.8708 32.6695 42.8137 32.3995C42.7147 31.9316 42.2961 31.5931 41.8166 31.5931H40.1992C39.3391 31.5931 38.6008 32.2131 38.5209 33.0043C38.4752 33.4569 38.616 33.8905 38.9167 34.2252C39.2173 34.5561 39.6436 34.7463 40.0888 34.7463H41.4741C42.7718 34.7463 44.0201 35.3016 44.8954 36.2639C45.7859 37.2415 46.2045 38.5081 46.0751 39.8317C45.881 41.8134 44.3436 43.449 42.3037 43.8788V45.5524C42.3037 45.8871 42.0297 46.1609 41.6948 46.1609H39.8681C39.5294 46.1609 39.2592 45.8871 39.2592 45.5524V43.9472C37.3754 43.719 35.895 42.2318 35.7009 40.3338C35.6857 40.1703 35.7428 40.0029 35.8531 39.8812C35.9711 39.7519 36.1386 39.6758 36.3136 39.6758H38.1632C38.4486 39.6758 38.696 39.8736 38.753 40.1436C38.852 40.6077 39.2706 40.9462 39.7501 40.9462H41.3713C42.2314 40.9462 42.9659 40.3262 43.0496 39.5351C43.0953 39.0824 42.9507 38.6488 42.65 38.3141C42.3532 37.9832 41.927 37.793 41.4817 37.793H40.2905C37.8283 37.793 35.7199 35.9635 35.4916 33.628C35.2557 31.2051 36.8997 29.0485 39.263 28.6263V26.9869C39.263 26.6484 39.537 26.3746 39.8719 26.3746H41.6986C42.0373 26.3746 42.3075 26.6484 42.3075 26.9869L42.3037 26.9907Z" fill="white"/>
<path d="M72.874 56.6129L66.6632 40.7556C66.4082 40.0786 65.7422 39.626 65.0229 39.626H58.9111C58.6865 40.8583 58.344 42.0299 57.8797 43.1633H63.8242L69.3576 57.2633H12.1054L17.6236 43.1633H23.568C23.0999 42.0337 22.7612 40.8583 22.5367 39.626H16.4248C15.6903 39.626 15.0395 40.0786 14.7693 40.7556L8.55851 56.6129C8.4862 56.8107 8.44434 57.0389 8.44434 57.2481V87.2624C8.44434 88.2399 9.23591 89.0311 10.214 89.0311H26.2205C22.8678 85.6078 21.9734 80.4463 24.0285 76.4297C25.9541 72.6831 29.7179 70.3477 33.8356 70.3477C36.3816 70.3477 38.8172 71.2264 40.7543 72.8239C42.7789 71.2264 45.283 70.3363 47.8024 70.3363C49.4578 70.3363 51.0296 70.7167 52.4719 71.4546C55.6991 73.1091 57.8645 76.0646 58.4163 79.5601C58.9529 82.9833 57.8074 86.5055 55.3604 88.9664L55.2881 89.0387H71.2376C72.2156 89.0387 73.0072 88.2475 73.0072 87.27V57.2557C73.0072 57.0427 72.9653 56.8183 72.8816 56.6205L72.874 56.6129Z" fill="white"/>
<path d="M50.8435 74.5929C47.9969 73.1361 44.4919 73.9729 42.2314 76.2323L40.7319 77.7347L39.0384 76.0383C35.6019 72.6074 29.6194 73.2692 27.1724 78.039C25.7148 80.8841 26.5521 84.3872 28.8126 86.6465L39.7767 97.6047C40.3019 98.1296 41.1582 98.1296 41.6833 97.6047L52.8453 86.4526C56.2818 83.0179 55.612 77.0386 50.8435 74.5929Z" fill="white"/>
</g>
<defs>
<clipPath id="clip0_1619_2720">
<rect width="73" height="98" fill="#BD052D"/>
</clipPath>
</defs>
</svg>
