<svg width="16" height="16" viewBox="0 0 16 16" fill="none" xmlns="http://www.w3.org/2000/svg">
<path d="M11 4.66659H5.74467C5.03067 3.44925 3.826 3.26059 3.23867 3.33992L2.47867 3.44859L3.164 5.80125C2.65 6.22325 2.226 6.74192 1.91467 7.33325H0V11.9999H1.91067C2.71933 13.5353 4.26333 14.5286 6 14.6439V15.9999H7.33333V14.6666H10V15.9999H11.3333V14.6499C13.9347 14.4773 16 12.3113 16 9.66659C16 6.90925 13.7573 4.66659 11 4.66659ZM11.3333 8.66659H6.66667V7.33325H11.3333V8.66659Z" fill="#343434"/>
<path d="M9.00065 3.33333C9.92113 3.33333 10.6673 2.58714 10.6673 1.66667C10.6673 0.746192 9.92113 0 9.00065 0C8.08018 0 7.33398 0.746192 7.33398 1.66667C7.33398 2.58714 8.08018 3.33333 9.00065 3.33333Z" fill="#343434"/>
</svg>
