<svg width="29" height="29" viewBox="0 0 29 29" fill="none" xmlns="http://www.w3.org/2000/svg">
<path fill-rule="evenodd" clip-rule="evenodd" d="M19.5815 21.4338C19.8917 21.1473 19.9109 20.6635 19.6243 20.3533C19.3378 20.0431 18.854 20.0239 18.5438 20.3104C17.44 21.3301 16.0039 21.8916 14.5 21.8916C12.9962 21.8916 11.5601 21.3301 10.4562 20.3104C10.1459 20.0239 9.66226 20.0431 9.37568 20.3533C9.08914 20.6635 9.10831 21.1473 9.41853 21.4338C10.8058 22.7152 12.6104 23.4209 14.5 23.4209C16.3896 23.4209 18.1942 22.7152 19.5815 21.4338ZM16.0293 16.3691V10.9316C16.0293 10.5093 15.687 10.167 15.2646 10.167C14.8423 10.167 14.5 10.5093 14.5 10.9316V16.3691C14.5 16.6034 14.3094 16.7939 14.0752 16.7939H13.4521C13.0298 16.7939 12.6875 17.1363 12.6875 17.5586C12.6875 17.9809 13.0298 18.3232 13.4521 18.3232H14.0752C15.1527 18.3232 16.0293 17.4466 16.0293 16.3691ZM21.2969 13.0698V10.8892C21.2969 10.4903 20.9735 10.167 20.5747 10.167C20.1759 10.167 19.8525 10.4903 19.8525 10.8892V13.0698C19.8525 13.4687 20.1759 13.792 20.5747 13.792C20.9735 13.792 21.2969 13.4687 21.2969 13.0698ZM8.59521 13.792C8.19638 13.792 7.87305 13.4687 7.87305 13.0698V10.8892C7.87305 10.4903 8.19638 10.167 8.59521 10.167C8.99405 10.167 9.31738 10.4903 9.31738 10.8892V13.0698C9.31738 13.4687 8.99405 13.792 8.59521 13.792Z" fill="#343434"/>
</svg>
