<svg width="16" height="16" viewBox="0 0 16 16" fill="none" xmlns="http://www.w3.org/2000/svg">
<path d="M8.66667 7.99967L5.33333 5.33301V7.33301H0V8.66634H5.33333V10.6663L8.66667 7.99967Z" fill="#343434"/>
<path d="M12 0H4C3.46957 0 2.96086 0.210714 2.58579 0.585786C2.21071 0.960859 2 1.46957 2 2V6H3.33333V2.66667C3.33333 2.48986 3.40357 2.32029 3.5286 2.19526C3.65362 2.07024 3.82319 2 4 2H12C12.1768 2 12.3464 2.07024 12.4714 2.19526C12.5964 2.32029 12.6667 2.48986 12.6667 2.66667V13.3333C12.6667 13.5101 12.5964 13.6797 12.4714 13.8047C12.3464 13.9298 12.1768 14 12 14H4C3.82319 14 3.65362 13.9298 3.5286 13.8047C3.40357 13.6797 3.33333 13.5101 3.33333 13.3333V10H2V14C2 14.5304 2.21071 15.0391 2.58579 15.4142C2.96086 15.7893 3.46957 16 4 16H12C12.5304 16 13.0391 15.7893 13.4142 15.4142C13.7893 15.0391 14 14.5304 14 14V2C14 1.46957 13.7893 0.960859 13.4142 0.585786C13.0391 0.210714 12.5304 0 12 0V0Z" fill="#343434"/>
</svg>
