<svg width="16" height="16" viewBox="0 0 16 16" fill="none" xmlns="http://www.w3.org/2000/svg">
<g clip-path="url(#clip0_1166_1628)">
<path d="M16 9.33333V6.66667L13.7747 6.38867C13.6458 5.92355 13.4609 5.47583 13.224 5.05533L14.6 3.286L12.714 1.4L10.9453 2.776C10.5248 2.5391 10.0771 2.35419 9.612 2.22533L9.33333 0H6.66667L6.38867 2.22533C5.92355 2.35419 5.47583 2.5391 5.05533 2.776L3.286 1.4L1.4 3.286L2.776 5.05467C2.5391 5.47516 2.35419 5.92289 2.22533 6.388L0 6.66667V9.33333L2.22533 9.61133C2.35419 10.0764 2.5391 10.5242 2.776 10.9447L1.4 12.714L3.286 14.6L5.05467 13.2247C5.47516 13.4616 5.92289 13.6465 6.388 13.7753L6.66667 16H9.33333L9.61133 13.7747C10.0764 13.6458 10.5242 13.4609 10.9447 13.224L12.714 14.6L14.6 12.714L13.2247 10.9453C13.4616 10.5248 13.6465 10.0771 13.7753 9.612L16 9.33333ZM8 10.6667C7.47258 10.6667 6.95701 10.5103 6.51848 10.2173C6.07995 9.92424 5.73815 9.50776 5.53632 9.02049C5.33449 8.53322 5.28168 7.99704 5.38457 7.47976C5.48747 6.96248 5.74144 6.48732 6.11438 6.11438C6.48732 5.74144 6.96248 5.48747 7.47976 5.38457C7.99704 5.28168 8.53322 5.33449 9.02049 5.53632C9.50776 5.73815 9.92424 6.07995 10.2173 6.51848C10.5103 6.95701 10.6667 7.47258 10.6667 8C10.6667 8.70724 10.3857 9.38552 9.88562 9.88562C9.38552 10.3857 8.70724 10.6667 8 10.6667Z" fill="#343434"/>
</g>
<defs>
<clipPath id="clip0_1166_1628">
<rect width="16" height="16" fill="white"/>
</clipPath>
</defs>
</svg>
