<svg width="86" height="86" viewBox="0 0 86 86" fill="none" xmlns="http://www.w3.org/2000/svg">
<g clip-path="url(#clip0_1619_2725)">
<path d="M43.0081 35.4576L41.1454 33.5914C37.3691 29.8183 30.7936 30.5478 28.103 35.7901C26.4982 38.9185 27.4211 42.773 29.9047 45.2601L41.9597 57.3121C42.5398 57.8923 43.4763 57.8923 44.0565 57.3121L56.3218 45.0463C60.0981 41.2698 59.3653 34.6907 54.1232 32.0034C50.995 30.3985 47.1406 31.3214 44.657 33.8052L43.0081 35.4576Z" fill="#56BCE3"/>
<path d="M25.1445 10.3048C24.8561 11.8317 24.5032 13.8437 24.1707 15.6319C24.303 15.6115 24.415 15.6115 24.5236 15.6115C25.6738 15.6115 26.8206 15.9406 27.8384 16.5819C28.3677 16.9144 28.8563 17.3352 29.2736 17.8L47.0864 17.6439C46.91 17.0468 46.8217 16.3851 46.8217 15.6997V7.63108C46.8217 6.50459 46.9778 5.51043 47.2628 4.62824L23.0205 4.4043C24.6559 5.79544 25.5414 8.00771 25.1411 10.3048H25.1445Z" fill="#56BCE3"/>
<path d="M53.6624 19.7105C56.3394 22.1534 62.7927 26.0894 62.7927 26.0894C63.7393 26.751 65.0557 26.4897 65.6766 25.499C66.2568 24.5659 65.9379 23.6091 65.0218 22.7031C64.1057 21.7938 62.1955 20.2364 62.1955 20.2364C61.3643 19.4085 61.9207 18.6925 62.7621 18.7333C64.2652 18.8045 65.2288 18.9097 66.9184 19.1269C68.6115 19.344 76.4932 20.7962 76.4932 20.7962C77.484 20.9693 78.4306 20.3042 78.6036 19.3101C78.7699 18.3159 78.1116 17.3726 77.1175 17.1996L67.4477 15.5133C67.1865 15.4692 66.9931 15.2486 66.9795 14.9839L66.9727 14.7973C66.9558 14.4614 67.2374 14.1866 67.5699 14.2069L79.3772 14.95C80.3849 15.0111 81.2535 14.251 81.3145 13.2433C81.3553 12.239 80.6122 11.3738 79.6079 11.3059L67.2849 10.5323C66.9965 10.5119 66.7692 10.2812 66.759 9.99618C66.7454 9.68402 66.9863 9.42275 67.2951 9.40579L77.8979 8.94094C78.9056 8.89683 79.6961 8.03161 79.6418 7.03745C79.5977 6.02971 78.7461 5.24932 77.7384 5.29342L67.1322 5.75827C66.82 5.77184 66.5588 5.53094 66.5452 5.22217V5.18485C66.5317 4.88965 66.7454 4.63518 67.0406 4.60124L75.2039 3.63762C76.2048 3.51886 76.9275 2.61292 76.7986 1.61198C76.6832 0.611029 75.7739 -0.104902 74.773 0.0138539C74.773 0.0138539 63.5154 1.44572 59.3998 2.01235C55.2876 2.57899 51.25 3.51547 51.25 7.62784V15.7101C51.25 17.2437 52.4986 18.6484 53.6657 19.7105H53.6624Z" fill="#56BCE3"/>
<path d="M75.6859 25.1359C74.1625 24.8475 72.1505 24.4946 70.3828 24.1859C70.4506 25.5566 70.0503 26.8392 69.4327 27.8334C69.0799 28.3864 68.6829 28.8717 68.1943 29.2686L68.3708 47.0821C68.9679 46.926 69.6092 46.8378 70.2945 46.8378H78.3832C79.4893 46.8378 80.4834 46.9939 81.3656 47.2789L81.5861 23.0322C80.4156 24.3827 78.7123 25.2411 76.8123 25.2411C76.4357 25.2411 76.0828 25.197 75.6859 25.1325V25.1359Z" fill="#56BCE3"/>
<path d="M83.9877 59.3981C83.421 55.2858 82.4812 51.248 78.3724 51.248H70.2905C68.7569 51.248 67.3522 52.4967 66.2903 53.6639C63.8474 56.341 59.915 62.7946 59.915 62.7946C59.2534 63.7412 59.5146 65.0577 60.5054 65.6787C61.4384 66.2589 62.3952 65.9433 63.3011 65.0238C64.2104 64.1077 65.7678 62.1974 65.7678 62.1974C66.5956 61.3661 67.3115 61.9226 67.2742 62.764C67.203 64.2671 67.0978 65.2274 66.8806 66.9171C66.6635 68.6102 65.2113 76.4923 65.2113 76.4923C65.0383 77.483 65.7033 78.4297 66.694 78.5993C67.6881 78.769 68.6314 78.1107 68.8044 77.1132L70.4907 67.443C70.5348 67.1818 70.7553 66.9884 71.02 66.9782L71.2066 66.968C71.5425 66.9544 71.8139 67.2327 71.7936 67.5652L71.0505 79.373C70.9861 80.3773 71.7495 81.2459 72.7571 81.3104C73.7648 81.3511 74.63 80.608 74.6945 79.6037L75.4715 67.2802C75.4884 66.9918 75.7225 66.7644 76.0076 66.7542C76.3197 66.7407 76.581 66.9816 76.5979 67.2903L77.0627 77.8936C77.1069 78.9013 77.972 79.6919 78.9662 79.6376C79.9739 79.5935 80.7542 78.7385 80.7101 77.7341L80.2453 67.1275C80.2317 66.8153 80.4726 66.5541 80.7814 66.5405H80.8187C81.1139 66.5269 81.3683 66.7407 81.4023 67.0359L82.3659 75.1995C82.4846 76.2005 83.3905 76.9232 84.3914 76.7976C85.3923 76.6823 86.1082 75.7729 85.9895 74.772C85.9895 74.772 84.5577 63.5139 83.9911 59.3981H83.9877Z" fill="#56BCE3"/>
<path d="M10.3146 60.871C11.8381 61.1357 13.8297 61.5123 15.6178 61.8245C15.5499 60.4537 15.9503 59.1711 16.5678 58.1566C16.9206 57.6035 17.3176 57.1183 17.8062 56.718L17.6297 38.9282C17.0326 39.0843 16.3913 39.1725 15.706 39.1725H7.61728C6.51119 39.1725 5.51707 39.0165 4.63491 38.7314L4.39062 63.0222C5.56118 61.6311 7.28477 60.7658 9.1848 60.7658C9.53766 60.7658 9.91428 60.81 10.3112 60.8744L10.3146 60.871Z" fill="#56BCE3"/>
<path d="M15.7089 34.7516C17.2425 34.7516 18.6472 33.503 19.7092 32.3358C22.1521 29.6587 26.0844 23.2051 26.0844 23.2051C26.746 22.2585 26.4848 20.942 25.4941 20.321C24.561 19.7408 23.6042 20.0598 22.6983 20.9759C21.789 21.892 20.2317 23.8023 20.2317 23.8023C19.4038 24.6336 18.6879 24.0771 18.7252 23.2357C18.7965 21.7325 18.9017 20.7689 19.1188 19.0792C19.3359 17.3861 20.7881 9.50403 20.7881 9.50403C20.9611 8.50987 20.2961 7.56661 19.3054 7.39356C18.3113 7.2273 17.3681 7.88555 17.195 8.87971L15.5087 18.5499C15.4646 18.8111 15.2441 19.0045 14.9795 19.0181L14.7928 19.0249C14.4569 19.0419 14.1855 18.7602 14.2059 18.4277L14.9489 6.61995C15.0134 5.61221 14.25 4.7436 13.2423 4.68252C12.2346 4.63841 11.3694 5.38488 11.3049 6.38922L10.528 18.7093C10.511 18.9978 10.2769 19.2251 9.99188 19.2353C9.67973 19.2488 9.41848 19.0113 9.40151 18.6992L8.93668 8.09253C8.89258 7.08819 8.02738 6.29761 7.03326 6.3519C6.02557 6.39601 5.2452 7.24766 5.28931 8.25539L5.75414 18.862C5.76771 19.1742 5.52681 19.4355 5.21806 19.449H5.18074C4.88555 19.4626 4.63109 19.2455 4.59716 18.9536L3.63357 10.79C3.51482 9.78905 2.60891 9.06633 1.60801 9.19527C0.607099 9.31063 -0.108805 10.22 0.00994717 11.2209C0.00994717 11.2209 1.44175 22.479 2.00837 26.5948C2.57498 30.7071 3.51482 34.7483 7.62363 34.7483H15.7055L15.7089 34.7516Z" fill="#56BCE3"/>
<path d="M60.8552 75.7016C61.1436 74.1578 61.4965 72.1661 61.829 70.378C61.6966 70.3983 61.5847 70.3983 61.4761 70.3983C60.3259 70.3983 59.1791 70.0658 58.1612 69.4245C57.6319 69.0954 57.1434 68.6747 56.726 68.1895L38.937 68.3659C39.0931 68.9834 39.1813 69.6247 39.1813 70.2897V78.3754C39.1813 79.4815 39.0252 80.4756 38.7402 81.3612L63.0063 81.6021C62.5856 81.2493 62.2327 80.8523 61.9002 80.4112C60.9502 79.0404 60.5736 77.3846 60.862 75.7016H60.8552Z" fill="#56BCE3"/>
<path d="M32.3344 66.2896C29.6574 63.8466 23.2041 59.914 23.2041 59.914C22.2575 59.2524 20.9411 59.5137 20.3202 60.5044C19.74 61.4341 20.0589 62.3943 20.975 63.3003C21.8911 64.2062 23.8013 65.7636 23.8013 65.7636C24.6326 66.5915 24.0761 67.3075 23.2347 67.2701C21.7316 67.1955 20.768 67.0937 19.0784 66.8732C17.3853 66.656 9.50358 65.2072 9.50358 65.2072C8.51285 65.0341 7.56623 65.6958 7.39319 66.6899C7.22694 67.6841 7.88516 68.6274 8.87928 68.8038L18.5491 70.4867C18.8103 70.5309 19.0037 70.7514 19.0173 71.0161L19.0241 71.2027C19.041 71.5386 18.7594 71.81 18.4269 71.7897L6.61961 71.0466C5.61192 70.9821 4.74333 71.7456 4.68226 72.7533C4.64154 73.761 5.38459 74.6263 6.38889 74.6907L18.7119 75.4677C19.0003 75.4847 19.2277 75.7154 19.2378 76.0038C19.2514 76.316 19.0105 76.5806 18.7017 76.5942L8.09892 77.0591C7.09122 77.1032 6.30068 77.9684 6.35496 78.9592C6.39907 79.9669 7.25069 80.7473 8.25838 80.7032L18.868 80.2383C19.1802 80.2248 19.4414 80.4657 19.455 80.7744V80.8118C19.4685 81.107 19.2548 81.3614 18.9596 81.3954L10.7963 82.359C9.79537 82.4777 9.07268 83.3837 9.20161 84.3846C9.31697 85.3856 10.2263 86.1015 11.2272 85.9828C11.2272 85.9828 22.4848 84.5543 26.6004 83.9877C30.7126 83.421 34.7502 82.4811 34.7502 78.3688V70.2866C34.7502 68.7529 33.5016 67.3482 32.3344 66.2862V66.2896Z" fill="#56BCE3"/>
</g>
<defs>
<clipPath id="clip0_1619_2725">
<rect width="86" height="86" fill="white"/>
</clipPath>
</defs>
</svg>
